<svg width="30" height="9" viewBox="0 0 30 9" fill="none" xmlns="http://www.w3.org/2000/svg">
<path d="M6.40215 8.49469C9.40712 8.69762 12.3624 8.71271 15.3161 8.59675C15.6832 8.58001 15.9954 8.46512 16.1142 8.06874C16.2302 7.67017 16.0101 7.41627 15.7328 7.18331C14.9329 6.5058 14.1373 5.82287 13.28 5.09451C17.5492 4.9625 21.7479 5.00633 25.9627 4.75877C25.389 5.11439 24.8066 5.45855 24.2475 5.83491C23.6834 6.21178 23.5442 6.67223 23.8432 7.03906C24.1167 7.3764 24.9685 7.44678 25.2841 7.06166C25.8748 6.33038 26.7374 6.06041 27.497 5.61323C27.7418 5.47084 28.0131 5.36772 28.2438 5.20949C29.3054 4.48262 29.327 3.73015 28.3601 2.92678C27.396 2.1256 26.3937 1.36067 25.6662 0.316455C25.4351 -0.0179678 25.0863 -0.0848732 24.7548 0.103872C24.4211 0.295327 24.3266 0.61733 24.4836 0.999252C24.6432 1.38336 24.876 1.71018 25.182 1.97971C25.5724 2.32195 25.9787 2.65014 26.34 2.95092C26.1512 3.31761 25.948 3.26988 25.7778 3.2756C23.6142 3.37192 21.4519 3.54981 19.2862 3.53248C16.511 3.51062 13.7404 3.6492 10.9678 3.62953C10.5073 3.62898 10.0152 3.61196 9.90268 4.18347C9.78909 4.74518 10.1751 5.09284 10.6144 5.33581C10.967 5.53106 11.3568 5.65798 11.7241 5.82937C12.3865 6.14518 12.9335 6.60943 13.5691 7.20786C12.5935 7.22988 11.7524 7.30691 10.9153 7.25727C9.28117 7.16361 7.6409 7.22163 6.00773 7.04369C4.74252 6.90338 3.47209 6.83048 2.20521 6.69777C1.73725 6.65097 1.2745 6.65312 0.811118 6.67268C0.345551 6.69494 0.0175864 6.94025 0.000678026 7.40998C-0.0167509 7.87482 0.335249 8.06517 0.749241 8.14C1.28929 8.23609 1.81383 8.04663 2.3719 8.12594C3.68857 8.30782 5.02432 8.36635 6.40601 8.48437L6.40215 8.49469Z" fill="#2FA1A1"/>
</svg>
